<svg xmlns="http://www.w3.org/2000/svg" xmlns:xlink="http://www.w3.org/1999/xlink" width="100%" height="100%" viewBox="0 0 200 210"><defs><style type="text/css">svg{font-size:19px;font-family:sans-serif}.doubleArrowLine,.line{stroke:#000;stroke-width:1.5;fill:none}.doubleArrowLine{marker-start:url(#reverseArrow);marker-end:url(#arrow)}.outputValue{stroke:green;stroke-width:2.5;stroke-linecap:round;stroke-linejoin:round;fill:none}.axisLabel{font-size:.7em}.chartLabel,.tickLabel{text-anchor:middle}.tickLabel{font-size:.6em}.chartLabel{font-size:.5em;fill:green}</style><style type="text/css">.arrowHead{fill:currentColor;stroke:none}</style><marker id="arrow" markerHeight="5" markerWidth="5" orient="auto" viewBox="0 -5 10 10"><path d="M0-5l10 5l-10 5z" class="arrowHead" color="#000"/></marker><marker id="reverseArrow" markerHeight="5" markerWidth="5" orient="auto" viewBox="-10 -5 10 10"><path d="M0-5l-10 5l10 5z" class="arrowHead" color="#000"/></marker></defs><g><path d="M0 70v-190" class="doubleArrowLine" transform="translate(32 130)"/><path d="M-2 50h4M-2 0h4M-2-50h4M-2-100h4" class="line" transform="translate(32 130)"/><text x="-50" y="1em" class="tickLabel" transform="translate(32 130) rotate(-90)">-50px<tspan x="50">50px</tspan><tspan x="100">100px</tspan></text><text y="-.8em" class="axisLabel" transform="translate(32 130) rotate(-90)">left</text><path d="M0 0h150" class="line" transform="translate(32 130)"/><path d="M10.714-2v4M75-2v4M150-2v4" class="line" transform="translate(32 130)"/><text x="10.714" y="-.5em" class="tickLabel" transform="translate(32 130)">0.07<tspan x="75">0.5</tspan><tspan x="150">1</tspan></text><text x="140" y="1.3em" class="axisLabel" transform="translate(32 130)">time</text><text x=".6em" y="1.1em" class="tickLabel" transform="translate(32 130)">0</text><path d="M-0 0L10.71429 20 75-100 150-50" class="outputValue" transform="translate(32 130)"/><text x="75" y="-115" class="chartLabel" transform="translate(32 130)">spacing=&quot;paced(left)&quot;<tspan x="75" dy="1.1em">and fixed offset at 0.5</tspan></text></g></svg>