<svg xmlns="http://www.w3.org/2000/svg" xmlns:xlink="http://www.w3.org/1999/xlink" width="100%" height="100%" viewBox="148 -2 315 475"><defs><style type="text/css">svg{font-size:18px;font-family:sans-serif}.arrowLine{stroke:#000;stroke-width:1.5;fill:none;marker-end:url(#arrow)}</style><style type="text/css">.blackArrowHead{fill:#000;stroke:none}</style><marker id="arrow" markerHeight="5" markerWidth="5" orient="auto" viewBox="0 -5 10 10"><path d="M0-5l10 5l-10 5z" class="blackArrowHead"/></marker><marker id="reverseArrow" markerHeight="5" markerWidth="5" orient="auto" viewBox="-10 -5 10 10"><path d="M0-5l-10 5l10 5z" class="blackArrowHead"/></marker><style type="text/css">.startTimeStar{stroke:#00f;stroke-linecap:round;stroke-width:2;fill:none}</style><path id="star" d="M-3.5-3.5l7 7M3.5-3.5l-7 7M0-5v10M-5 0h10" class="startTimeStar"/><style type="text/css">.document{fill:#90ee90;stroke:#000;stroke-width:2}</style><g id="document"><path d="M0 0h100v70c-20-8-30-8-50 0s-30 8-50 0z" class="document"/><g><text y="-.7em" text-anchor="middle" transform="translate(50 45)">Document<tspan x="0" dy="1em">timeline</tspan></text></g></g><style type="text/css">.animation{fill:plum;stroke:#000;stroke-width:2}</style><g id="animation"><path d="M-40-45v90l100-45z" class="animation"/><text y=".3em" text-anchor="middle">Animation</text></g><style type="text/css">.effect{fill:#afeeee;stroke:#000;stroke-width:2}</style><g id="effect"><ellipse class="effect" rx="60" ry="40"/><text y=".3em" text-anchor="middle">Effect</text></g></defs><g transform="translate(300 50)"><circle r="50" fill="brown" stroke="#000" stroke-width="2"/><circle r="43" fill="#fff" stroke="#000" stroke-width="2"/><path fill="none" stroke="#000" stroke-width="2" d="M0-43v8M43 0h-8M0 43v-8M-43 0h8"/><text y="-.2em" text-anchor="middle">Global<tspan x="0" dy="1em">clock</tspan></text></g><use x="250" y="150" xlink:href="#document"/><line x1="300" x2="300" y1="150" y2="110" class="arrowLine"/><use x="200" y="300" xlink:href="#animation"/><line x1="230" x2="280" y1="288" y2="235" class="arrowLine"/><use x="210" y="430" xlink:href="#effect"/><line x1="210" x2="210" y1="390" y2="340" class="arrowLine"/><use x="400" y="300" xlink:href="#animation"/><line x1="360" x2="320" y1="300" y2="235" class="arrowLine"/><use x="400" y="430" xlink:href="#effect"/><line x1="400" x2="400" y1="390" y2="340" class="arrowLine"/></svg>