<svg xmlns="http://www.w3.org/2000/svg" xmlns:xlink="http://www.w3.org/1999/xlink" width="100%" height="100%" viewBox="0 0 320 525"><defs><style type="text/css">svg{font-size:15px;font-family:sans-serif}.axis,.tickMark{stroke:#000;stroke-width:1.2;fill:none;stroke-linecap:square}.boundaryLine{stroke:gray;stroke-width:1;stroke-dasharray:2 3;fill:none}.curve{fill:none;stroke:#00f;stroke-width:3;stroke-linecap:round}.controlPoint{fill:#fff;stroke:#000;stroke-width:1}.handleLine{fill:none;stroke:#000;stroke-width:2}.graphBackground{stroke:none;fill:#fff}.axisValue{fill:gray}.axisValue.vert{text-anchor:end}.axisValue.horz{text-anchor:middle}.pointLabel{fill:#000;font-size:11px}.keyword{font-size:17px;text-anchor:middle}</style><g id="graph" style="font-size:10px"><rect width="100" height="100" y="-100" class="graphBackground"/><line x1="100" x2="100" y2="-100" class="boundaryLine"/><line x2="100" y1="-100" y2="-100" class="boundaryLine"/><line y2="-100" class="axis"/><line x2="-5" y1="-50" y2="-50" class="tickMark"/><line x2="-5" y1="-100" y2="-100" class="tickMark"/><text x="-9" y="-50" class="axisValue vert" dy=".3em">0.5</text><text x="-9" y="-100" class="axisValue vert" dy=".3em">1</text><line x2="100" class="axis"/><line x1="50" x2="50" y2="5" class="tickMark"/><line x1="100" x2="100" y2="5" class="tickMark"/><text x="50" y="7.5" class="axisValue horz" dy="1.1em">0.5</text><text x="100" y="7.5" class="axisValue horz" dy="1.1em">1</text><text x="-.5em" y="1em" class="axisValue" text-anchor="end">0</text></g></defs><g><g transform="translate(30 20) translate(0 100)"><use xlink:href="#graph"/><text x="50" y="40" class="keyword">ease</text><line x2="25" y2="-10" class="handleLine"/><circle cx="25" cy="-10" r="3" class="controlPoint"/><text x="35" y="-10" class="pointLabel" dy=".2em">(0.25, 0.1)</text><line x1="100" x2="25" y1="-100" y2="-100" class="handleLine"/><circle cx="25" cy="-100" r="3" class="controlPoint"/><text x="25" y="-100" class="pointLabel" dy="1.4em" text-anchor="middle">(0.25, 1)</text><path d="M0 0C25-10 25-100 100-100" class="curve"/></g><g transform="translate(30 20) translate(180 100)"><use xlink:href="#graph"/><text x="50" y="40" class="keyword">linear</text><path d="M0 0L100-100" class="curve"/><circle r="3" class="controlPoint"/><text x="5" class="pointLabel" dy="1.2em">(0, 0)</text><circle cx="100" cy="-100" r="3" class="controlPoint"/><text x="95" y="-105" class="pointLabel" text-anchor="end">(1, 1)</text></g><g transform="translate(30 20) translate(0 280)"><use xlink:href="#graph"/><text x="50" y="40" class="keyword">ease-in</text><path d="M0 0C42 0 100-100 100-100" class="curve"/><line x2="42" class="handleLine"/><circle cx="42" r="3" class="controlPoint"/><text x="42" y="-10" class="pointLabel" dy=".2em">(0.42, 0)</text><circle cx="100" cy="-100" r="3" class="controlPoint"/><text x="95" y="-105" class="pointLabel" text-anchor="end">(1, 1)</text></g><g transform="translate(30 20) translate(180 280)"><use xlink:href="#graph"/><text x="50" y="40" class="keyword">ease-out</text><path d="M0 0C0 0 58-100 100-100" class="curve"/><circle r="3" class="controlPoint"/><text x="5" class="pointLabel" dy="1.2em">(0, 0)</text><line x1="100" x2="58" y1="-100" y2="-100" class="handleLine"/><circle cx="58" cy="-100" r="3" class="controlPoint"/><text x="58" y="-100" class="pointLabel" dy="1.4em" text-anchor="end">(0.58, 1)</text></g><g transform="translate(30 20) translate(90 460)"><use xlink:href="#graph"/><text x="50" y="40" class="keyword">ease-in-out</text><line x2="42" class="handleLine"/><circle cx="42" r="3" class="controlPoint"/><text x="42" y="-10" class="pointLabel" dy=".2em">(0.42, 0)</text><line x1="100" x2="58" y1="-100" y2="-100" class="handleLine"/><circle cx="58" cy="-100" r="3" class="controlPoint"/><text x="58" y="-100" class="pointLabel" dy="1.4em" text-anchor="end">(0.58, 1)</text><path d="M0 0C42 0 58-100 100-100" class="curve"/></g></g></svg>