<svg xmlns="http://www.w3.org/2000/svg" width="100%" height="100%" viewBox="0 0 600 230"><defs><style type="text/css">svg{font-size:19px;font-family:sans-serif}.arrowLine{marker-end:url(#arrow)}.arrowLine,.bracket{stroke:#000;stroke-width:1.5;fill:none}.activeSpan{fill:#afeeee;stroke:#000}.repeatBoundary{stroke:navy;stroke-width:2;stroke-dasharray:4 4}.durationLabel{text-anchor:middle}</style><style type="text/css">.blackArrowHead{fill:#000;stroke:none}</style><marker id="arrow" markerHeight="5" markerWidth="5" orient="auto" viewBox="0 -5 10 10"><path d="M0-5l10 5l-10 5z" class="blackArrowHead"/></marker></defs><g><text x="1em" y="1.1em">Time</text><line x1="4em" x2="97%" y1=".8em" y2=".8em" class="arrowLine"/></g><g><g><path d="M0 0s0-10 10-10h180s10 0 10-10c0 0 0 10 10 10h180s10 0 10 10" class="bracket" transform="translate(80 20) translate(0 60)"/><g><text y="-25" class="durationLabel" transform="translate(80 20) translate(0 60) translate(200 0)">active duration</text></g></g><g transform="translate(80 20) translate(0 70)"><rect width="400" height="80" class="activeSpan"/><path d="M160 0v80m160-80v80" class="repeatBoundary"/></g><g><path d="M2 0s0 10 10 10h58s10 0 10 10c0 0 0-10 10-10h58s10 0 10-10" class="bracket" transform="translate(80 20) translate(0 160)"/><path d="M162 0s0 10 10 10h58s10 0 10 10c0 0 0-10 10-10h58s10 0 10-10" class="bracket" transform="translate(80 20) translate(0 160)"/><path d="M322 0s0 10 10 10h58s10 0 10 10c0 0 0-10 10-10h58s10 0 10-10" class="bracket" transform="translate(80 20) translate(0 160)"/><g><text x="80" class="durationLabel" transform="translate(80 20) translate(0 160) translate(0 38)">iteration duration</text><text x="240" class="durationLabel" transform="translate(80 20) translate(0 160) translate(0 38)">iteration duration</text><text x="400" class="durationLabel" transform="translate(80 20) translate(0 160) translate(0 38)">iteration duration</text></g></g></g></svg>