<svg xmlns="http://www.w3.org/2000/svg" xmlns:xlink="http://www.w3.org/1999/xlink" width="100%" height="100%" viewBox="0 0 500 700"><defs><style type="text/css">svg{font-size:19px;font-family:sans-serif}.tick{stroke:#000;stroke-width:1;fill:none}.arrowLine,.dottedArrow{stroke:#000;stroke-width:1.5;marker-end:url(#arrow);fill:none}.dottedArrow{stroke-dasharray:4 4;stroke-width:2}.dashLine{stroke:red;fill:none;stroke-dasharray:2 6;stroke-width:2.5;stroke-linecap:round}.bracket{stroke:#000;stroke-width:1.5;fill:none}.activeSpan{fill:#eee;stroke:#000}.animProgress{fill:#afeeee;stroke:#000;stroke-linejoin:bevel}.pauseSpan{fill:gold;fill-opacity:.2}.tickLabel{font-size:.8em}.regionLabel,.tickLabel,.timeLabel{text-anchor:middle}.animationLabel,.startTimeLabel{text-anchor:start;font-size:30px}.startTimeLabel{font-size:17px;font-style:italic;fill:red}.resultArrow{text-anchor:middle;font-size:40px;font-weight:700}</style><style type="text/css">.blackArrowHead{fill:#000;stroke:none}</style><marker id="arrow" markerHeight="5" markerWidth="5" orient="auto" viewBox="0 -5 10 10"><path d="M0-5l10 5l-10 5z" class="blackArrowHead"/></marker><style type="text/css">.startTimeStar{stroke:red;stroke-linecap:round;stroke-width:2;fill:none}</style><path id="star" d="M-3.5-3.5l7 7M3.5-3.5l-7 7M0-5v10M-5 0h10" class="startTimeStar"/></defs><g><text y=".3em" transform="translate(10 15)">Timeline</text><g transform="translate(10 15) translate(0 20)"><line x2="480" class="arrowLine"/><path d="M0-5v10m120-10v10m120-10v10m120-10v10" class="tick"/><g class="tickLabel"><text x="0" y="1.3em">0</text><text x="120" y="1.3em">1</text><text x="240" y="1.3em">2</text><text x="360" y="1.3em">3</text></g></g></g><g><g transform="translate(10 120) translate(120)"><rect width="330" height="50" class="activeSpan"/><path d="M0 50l90-18.75h90l150-31.25v50z" class="animProgress"/><use xlink:href="#star"/><text x="5" y="-25" class="startTimeLabel">start<tspan x="5" dy="1em">time</tspan></text><text x="15" y="35" class="animationLabel">A</text></g><g transform="translate(10 120) translate(210)"><rect width="90" height="50" class="pauseSpan"/><path d="M0 0v40" class="dottedArrow"/><text y="-10" class="timeLabel">pause</text><path d="M90 50v-40" class="dottedArrow"/><text x="90" y="70" class="timeLabel">unpause</text></g><text x="240" y="100" class="resultArrow" transform="translate(10 120)">⇓</text><g transform="translate(10 120) translate(210 160)"><rect width="240" height="50" class="activeSpan"/><path d="M0 50l240-50v50z" class="animProgress"/><text y="-35">Player current time</text><path d="M0-25h270" class="arrowLine"/><path d="M0-30v10m120-10v10m120-10v10" class="tick"/><g class="tickLabel"><text x="0" transform="translate(0 -5)">0</text><text x="120" transform="translate(0 -5)">1</text><text x="240" transform="translate(0 -5)">2</text></g><text x="15" y="35" class="animationLabel">A′</text><g transform="translate(-90)"><line y2="50" class="dashLine"/><use xlink:href="#star"/><path d="M2 55s0 7 7 7h29s7 0 7 7c0 0 0-7 7-7h29s7 0 7-7" class="bracket"/><text x="45" y="90" class="regionLabel">time drift</text></g></g></g><g><g transform="translate(10 440) translate(120)"><rect width="240" height="50" class="activeSpan"/><path d="M0 50l240-50v50z" class="animProgress"/><use xlink:href="#star"/><text x="5" y="-8" class="startTimeLabel">start time</text><text x="15" y="35" class="animationLabel">B</text></g><g transform="translate(10 440) translate(30)"><rect width="60" height="50" fill="#fff"/><rect width="60" height="50" class="pauseSpan"/><path d="M0 0v40" class="dottedArrow"/><text y="-10" class="timeLabel">pause</text><path d="M60 50v-40" class="dottedArrow"/><text x="60" y="70" class="timeLabel">unpause</text></g><text x="240" y="95" class="resultArrow" transform="translate(10 440)">⇓</text><g transform="translate(10 440) translate(180 160)"><rect width="240" height="50" class="activeSpan"/><path d="M0 50l240-50v50z" class="animProgress"/><text y="-40">Player current time</text><path d="M0-30h300" class="arrowLine"/><path d="M0-35v10m120-10v10m120-10v10" class="tick"/><g class="tickLabel"><text x="0" transform="translate(0 -10)">0</text><text x="120" transform="translate(0 -10)">1</text><text x="240" transform="translate(0 -10)">2</text></g><text x="15" y="35" class="animationLabel">B′</text><g transform="translate(-60)"><line y2="50" class="dashLine"/><use xlink:href="#star"/><path d="M2 55s0 7 7 7h14s7 0 7 7c0 0 0-7 7-7h14s7 0 7-7" class="bracket"/><text x="30" y="90" class="regionLabel">time drift</text></g></g></g></svg>