<svg xmlns="http://www.w3.org/2000/svg" xmlns:xlink="http://www.w3.org/1999/xlink" width="100%" height="100%" viewBox="0 0 500 518"><defs><style type="text/css">svg{font-size:19px;font-family:sans-serif}.tick{stroke:#000;stroke-width:1;fill:none}.arrowLine{marker-end:url(#arrow)}.arrowLine,.bracket{stroke:#000;stroke-width:1.5;fill:none}.activeSpan{fill:#afeeee;stroke:#000}.tLine{stroke:#00f;stroke-width:4;stroke-dasharray:3 10;stroke-linecap:round}.tLineLabel,.tLineNum{fill:#00f;font-size:35px;font-style:italic}.tLineNum{font-size:15px}.tickLabel{font-size:.8em}.regionLabel,.tickLabel{text-anchor:middle}.animationLabel,.startTimeLabel{text-anchor:start;font-size:15px}.startTimeLabel{font-size:17px;font-style:italic;fill:red}.action{fill:#ff4500;font-style:italic}.action,text.executionBlock{font-size:25px}</style><style type="text/css">.blackArrowHead{fill:#000;stroke:none}</style><marker id="arrow" markerHeight="5" markerWidth="5" orient="auto" viewBox="0 -5 10 10"><path d="M0-5l10 5l-10 5z" class="blackArrowHead"/></marker><style type="text/css">.startTimeStar{stroke:red;stroke-linecap:round;stroke-width:2;fill:none}</style><path id="star" d="M-3.5-3.5l7 7M3.5-3.5l-7 7M0-5v10M-5 0h10" class="startTimeStar"/></defs><g><text y=".1em" transform="translate(10 15)">Timeline</text><g transform="translate(10 15) translate(0 20)"><line x2="480" class="arrowLine"/><path d="M0-5v10m120-10v10m120-10v10m120-10v10" class="tick"/><g class="tickLabel"><text x="0" y="1.3em">0</text><text x="120" y="1.3em">1</text><text x="240" y="1.3em">2</text><text x="360" y="1.3em">3</text></g></g></g><g transform="translate(130 140)"><rect width="240" height="50" y="30" class="activeSpan"/><path d="M0 0h360" class="arrowLine"/><path d="M0-5v10m120-10v10m120-10v10" class="tick"/><text y="-27">Player current time</text><g class="tickLabel"><text x="0" transform="translate(0 20)">0</text><text x="120" transform="translate(0 20)">1</text><text x="240" transform="translate(0 20)">2</text></g><use xlink:href="#star"/><text x="5" y="-5" class="startTimeLabel">start time = 1s</text><text x="15" y="60" class="animationLabel">Source content</text></g><g transform="translate(70 375)"><rect width="240" height="50" y="90" class="activeSpan"/><path d="M0 0h360" class="arrowLine"/><path d="M0-5v10m120-10v10m120-10v10" class="tick"/><text y="-30">Player current time′</text><g class="tickLabel"><text x="0" transform="translate(0 20)">0</text><text x="120" transform="translate(0 20)">1</text></g><use x="60" xlink:href="#star"/><text x="65" y="-8" class="startTimeLabel">start time = 1s</text><text x="15" y="120" class="animationLabel">Source content</text><path d="M2 25s0 7 7 7h14s7 0 7 7c0 0 0-7 7-7h14s7 0 7-7" class="bracket"/><text x="30" y="60" class="regionLabel">time drift<tspan x="30" dy="1em">= -0.5s</tspan></text></g><g><path d="M0 0v495" class="tLine" transform="translate(310 20)"/><text x="10" y="485" class="tLineLabel" transform="translate(310 20)">t</text><text x="5" y="30" class="tLineNum" transform="translate(310 20)">2.5</text><text x="5" y="135" class="tLineNum" transform="translate(310 20)">1.5</text><text x="5" y="370" class="tLineNum" transform="translate(310 20)">2</text></g><g transform="translate(10 250)"><rect width="325" height="55" fill="#fff" stroke="#000"/><text x="15" y="37" class="executionBlock">⇒ <tspan class="action">Seek current time to 2s</tspan></text></g></svg>