<svg xmlns="http://www.w3.org/2000/svg" xmlns:xlink="http://www.w3.org/1999/xlink" width="100%" height="100%" viewBox="0 0 600 312"><defs><style type="text/css">svg{font-size:19px;font-family:sans-serif}.arrowLine{marker-end:url(#arrow)}.arrowLine,.bracket{stroke:#000;stroke-width:1.5;fill:none}.stateBracket{fill:none;stroke:navy;stroke-width:2}.activeSpan,.fillSpan{fill:#afeeee;stroke:#000}.fillSpan{fill:#d3d3d3}.regionLabel,.stateLabel{text-anchor:middle}.stateLabel{fill:navy}</style><style type="text/css">.blackArrowHead{fill:#000;stroke:none}</style><marker id="arrow" markerHeight="5" markerWidth="5" orient="auto" viewBox="0 -5 10 10"><path d="M0-5l10 5l-10 5z" class="blackArrowHead"/></marker><style type="text/css">.startTimeStar{stroke:red;stroke-linecap:round;stroke-width:2;fill:none}</style><path id="star" d="M-3.5-3.5l7 7M3.5-3.5l-7 7M0-5v10M-5 0h10" class="startTimeStar"/><mask id="fadeout" maskContentUnits="objectBoundingBox"><rect width="1.1" height="1.1" x="-.05" y="-.05" fill="url(#fadeoutGrad)"/></mask><linearGradient id="fadeoutGrad"><stop offset="0" stop-color="#fff" stop-opacity="1"/><stop offset=".35" stop-color="#fff" stop-opacity="1"/><stop offset=".9" stop-color="#fff" stop-opacity="0"/></linearGradient></defs><g><text x="1em" y="1.1em">Time</text><line x1="3.5em" x2="97%" y1=".8em" y2=".8em" class="arrowLine"/></g><g><g transform="translate(50 90) translate(40)"><text x="55" y="-35" class="regionLabel">start delay</text><path d="M2-7s0-10 10-10h33s10 0 10-10c0 0 0 10 10 10h33s10 0 10 10" class="bracket"/><use xlink:href="#star"/></g><g transform="translate(50 90) translate(150)"><text x="100" y="-35" class="regionLabel">active interval</text><path d="M2-7s0-10 10-10h78s10 0 10-10c0 0 0 10 10 10h78s10 0 10 10" class="bracket"/><rect width="200" height="80" class="activeSpan"/></g><g transform="translate(50 90) translate(350)"><text x="75" y="-35" class="regionLabel">fill: forwards</text><path d="M2-7s0-10 10-10h53s10 0 10-10c0 0 0 10 10 10h53s10 0 10 10" class="bracket" mask="url(#fadeout)"/><rect width="150" height="80" class="fillSpan" mask="url(#fadeout)"/></g></g><g><path d="M22 0s0 10 10 10h68s10 0 10 10c0 0 0-10 10-10h68s10 0 10-10" class="stateBracket" transform="translate(0 175)"/><text x="110" y="37" class="stateLabel" transform="translate(0 175)">scheduled</text><path d="M202 0s0 10 10 10h78s10 0 10 10c0 0 0-10 10-10h78s10 0 10-10" class="stateBracket" transform="translate(0 175)"/><text x="300" y="37" class="stateLabel" transform="translate(0 175)">active</text><path d="M22 45s0 10 10 10h168s10 0 10 10c0 0 0-10 10-10h168s10 0 10-10" class="stateBracket" transform="translate(0 175)"/><text x="210" y="80" class="stateLabel" transform="translate(0 175)">current</text><path d="M202 95s0 10 10 10h153s10 0 10 10c0 0 0-10 10-10h153s10 0 10-10" class="stateBracket" transform="translate(0 175)"/><text x="375" y="133" class="stateLabel" transform="translate(0 175)">in effect</text></g></svg>