<svg xmlns="http://www.w3.org/2000/svg" xmlns:xlink="http://www.w3.org/1999/xlink" width="100%" height="100%" viewBox="0 0 600 170"><defs><style type="text/css">svg{font-size:19px;font-family:sans-serif}.class{font-size:.7em}.class rect{stroke:#000;fill:#fffacd}</style><style type="text/css">.blackArrowHead{fill:#000;stroke:none}.unfilledMarker{fill:none;stroke:#000}</style><marker id="arrow" markerHeight="5" markerWidth="5" orient="auto" viewBox="0 -5 10 10"><path d="M0-5l10 5l-10 5z" class="blackArrowHead"/></marker><marker id="reverseArrow" markerHeight="5" markerWidth="5" orient="auto" viewBox="-10 -5 10 10"><path d="M0-5l-10 5l10 5z" class="blackArrowHead"/></marker><marker id="inheritanceTriangle" class="unfilledMarker" markerHeight="7" markerWidth="7" orient="auto" viewBox="0 -7 10 14"><path d="M0 0l0 7l10 -7l-10-7z"/></marker><style type="text/css">.startTimeStar{stroke:#00f;stroke-linecap:round;stroke-width:2;fill:none}</style><path id="star" d="M-3.5-3.5l7 7M3.5-3.5l-7 7M0-5v10M-5 0h10" class="startTimeStar"/><mask id="fadeout" maskContentUnits="objectBoundingBox"><rect width="1.1" height="1.1" x="-.05" y="-.05" fill="url(#fadeoutGrad)"/></mask><linearGradient id="fadeoutGrad"><stop offset="0" stop-color="#fff" stop-opacity="1"/><stop offset=".5" stop-color="#fff" stop-opacity="1"/><stop offset=".85" stop-color="#fff" stop-opacity="0"/></linearGradient></defs><g><text transform="translate(10 20)">Template Interfaces</text><g><g class="class" transform="translate(0 10) translate(30 20)"><rect width="120" height="3em"/><text y="1.5em" class="classLabel" transform="translate(60 0)">TimedTemplate</text></g><g class="class" transform="translate(0 10) translate(10 100)"><rect width="60" height="3em"/><text y="1.5em" class="classLabel" transform="translate(30 0)">Anim</text></g><g class="class" transform="translate(0 10) translate(90 100)"><rect width="100" height="3em"/><text y="1.5em" class="classLabel" transform="translate(50 0)">AnimGroup</text></g><path d="M 40 100 V 67" class="inheritanceLine" transform="translate(0 10)"/><path d="M 140 100 V 67" class="inheritanceLine" transform="translate(0 10)"/></g></g><g><text transform="translate(220 0) translate(10 20)">Instance Interfaces</text><g><g class="class" transform="translate(220 0) translate(0 10) translate(130 20)"><rect width="120" height="3em"/><text y="1.5em" class="classLabel" transform="translate(60 0)">TimedItem</text></g><g class="class" transform="translate(220 0) translate(0 10) translate(10 100)"><rect width="100" height="3em"/><text y="1.5em" class="classLabel" transform="translate(50 0)">AnimInstance</text></g><g class="class" transform="translate(220 0) translate(0 10) translate(130 100)"><rect width="140" height="3em"/><text y="1.5em" class="classLabel" transform="translate(70 0)">AnimGroupInstance</text></g><g class="class" transform="translate(220 0) translate(0 10) translate(290 100)"><rect width="80" height="3em"/><text y="1.5em" class="classLabel" transform="translate(40 0)">MediaItem</text></g><path d="M 60 100 V 80 H 150 V 67" class="inheritanceLine" transform="translate(220 0) translate(0 10)"/><path d="M 190 100 V 67" class="inheritanceLine" transform="translate(220 0) translate(0 10)"/><path d="M 330 100 V 80 H 230 V 67" class="inheritanceLine" transform="translate(220 0) translate(0 10)"/></g></g><path d="M 210 0 V 170" class="dottedLine"/></svg>