<svg xmlns="http://www.w3.org/2000/svg" xmlns:xlink="http://www.w3.org/1999/xlink" width="100%" height="100%" viewBox="0 0 535 510"><defs><style type="text/css">svg{font-size:23px;font-family:sans-serif}.axis,.tickMark{stroke:#000;stroke-width:1.5;fill:none;stroke-linecap:square}.boundaryLine{stroke:gray;stroke-width:1.5;stroke-dasharray:3 4;fill:none}.curve{fill:none;stroke:#00f;stroke-width:7;stroke-linecap:round}.controlPoint{fill:#fff;stroke:#000;stroke-width:3}.handleLine{fill:none;stroke:#000;stroke-width:2}.graphBackground{stroke:none;fill:#fff}.axisLabel{text-anchor:middle}.axisValue{fill:gray}.axisValue.vert{text-anchor:end}.axisValue.horz{text-anchor:middle}.pointLabel{fill:#000;font-size:25px}</style></defs><g transform="translate(110 420)"><rect width="400" height="400" y="-400" class="graphBackground"/><line x1="400" x2="400" y2="-400" class="boundaryLine"/><line x2="400" y1="-400" y2="-400" class="boundaryLine"/><line y2="-400" class="axis"/><line x2="-20" y1="-200" y2="-200" class="tickMark"/><line x2="-20" y1="-400" y2="-400" class="tickMark"/><text x="-30" y="-200" class="axisValue vert" dy=".3em">0.5</text><text x="-30" y="-400" class="axisValue vert" dy=".3em">1</text><text x="200" y="-80" class="axisLabel" transform="rotate(-90)">Output time fraction</text><line x2="400" class="axis"/><line x1="200" x2="200" y2="20" class="tickMark"/><line x1="400" x2="400" y2="20" class="tickMark"/><text x="200" y="20" class="axisValue horz" dy="1.1em">0.5</text><text x="400" y="20" class="axisValue horz" dy="1.1em">1</text><text x="200" y="80" class="axisLabel">Input time fraction</text><text x="-20" y="20" class="axisValue">0</text><line x2="240" y2="-40" class="handleLine"/><circle cx="240" cy="-40" r="10" class="controlPoint"/><text x="260" y="-40" class="pointLabel" dy=".4em">P1</text><line x1="400" x2="80" y1="-400" y2="-280" class="handleLine"/><circle cx="80" cy="-280" r="10" class="controlPoint"/><text x="60" y="-280" class="pointLabel" dy=".4em" text-anchor="end">P2</text><path d="M0 0C240-40 80-280 400-400" class="curve"/></g></svg>