<svg xmlns="http://www.w3.org/2000/svg" width="100%" height="100%" viewBox="0 0 620 295"><defs><style type="text/css">svg{font-size:19px;font-family:sans-serif}.arrowLine{marker-end:url(#arrow)}.arrowLine,.bracket{stroke:#000;stroke-width:1.5;fill:none}.activeSpan{fill:#eee;stroke:#000}.animProgress{fill:#afeeee;stroke:#000;stroke-linejoin:bevel}.durationLabel{text-anchor:middle}.parameters{fill:navy}</style><style type="text/css">.blackArrowHead{fill:#000;stroke:none}</style><marker id="arrow" markerHeight="5" markerWidth="5" orient="auto" viewBox="0 -5 10 10"><path d="M0-5l10 5l-10 5z" class="blackArrowHead"/></marker></defs><g><text x="1em" y="1.1em">Time</text><line x1="4em" x2="97%" y1=".8em" y2=".8em" class="arrowLine"/></g><g><g><path d="M0 0s0-10 10-10h180s10 0 10-10c0 0 0 10 10 10h180s10 0 10 10" class="bracket" transform="translate(20 80) translate(180 0)"/><g><text y="-25" class="durationLabel" transform="translate(20 80) translate(180 0) translate(200 0)">active duration</text></g></g><g><g><text class="parameters" transform="translate(20 80) translate(0 10) translate(0 35)">iteration count: 2.5<tspan x="0" dy="1.1em">iteration start: 0</tspan></text></g><g transform="translate(20 80) translate(0 10) translate(180 0)"><rect width="400" height="80" class="activeSpan"/><path d="M0 80l160-80v80l160-80v80l80-40v40z" class="animProgress"/></g></g></g><g><g><text class="parameters" transform="translate(20 210) translate(0 35)">iteration count: 2.5<tspan x="0" dy="1.1em">iteration start: 0.5</tspan></text></g><g transform="translate(20 210) translate(180 0)"><rect width="400" height="80" class="activeSpan"/><path d="M0 80v-40l80-40v80l160-80v80l160-80v80z" class="animProgress"/></g></g></svg>