<svg xmlns="http://www.w3.org/2000/svg" xmlns:xlink="http://www.w3.org/1999/xlink" width="100%" height="100%" viewBox="0 0 565 430"><defs><style type="text/css">svg{font-size:19px;font-family:sans-serif}.arrowLine,.tick{stroke:#000;fill:none}.tick{stroke-width:1}.arrowLine{stroke-width:1.5;marker-end:url(#arrow)}.dashLine{stroke:red;fill:none;stroke-dasharray:2 6;stroke-width:2.5;stroke-linecap:round}.bracket{stroke:#000;stroke-width:1.5;fill:none}.activeSpan{fill:#afeeee;stroke:#000}.tLine{stroke:#00f;stroke-width:4;stroke-dasharray:3 10;stroke-linecap:round}.tLineLabel,.tLineNum{fill:#00f;font-size:35px;font-style:italic}.tLineNum{font-size:15px}.exampleLabel{font-size:1.5em}.tickLabel{font-size:.8em}.regionLabel,.tickLabel{text-anchor:middle}.startTimeLabel{text-anchor:start;font-style:italic;fill:red}</style><style type="text/css">.blackArrowHead{fill:#000;stroke:none}</style><marker id="arrow" markerHeight="5" markerWidth="5" orient="auto" viewBox="0 -5 10 10"><path d="M0-5l10 5l-10 5z" class="blackArrowHead"/></marker><style type="text/css">.startTimeStar{stroke:red;stroke-linecap:round;stroke-width:2;fill:none}</style><path id="star" d="M-3.5-3.5l7 7M3.5-3.5l-7 7M0-5v10M-5 0h10" class="startTimeStar"/></defs><g><text y=".1em" transform="translate(70 15)">Inherited time</text><g transform="translate(70 15) translate(0 20)"><line x2="480" class="arrowLine"/><path d="M0-5v10m120-10v10m120-10v10m120-10v10" class="tick"/><g class="tickLabel"><text x="0" y="1.3em">0</text><text x="120" y="1.3em">1</text><text x="240" y="1.3em">2</text><text x="360" y="1.3em">3</text></g></g></g><g><text x="-40" y="35" class="exampleLabel" transform="translate(70 165)">(a)</text><g transform="translate(70 165) translate(120)"><rect width="240" height="50" class="activeSpan"/><path d="M0-30h360" class="arrowLine"/><path d="M0-35v10m120-10v10m120-10v10" class="tick"/><text y="-45">Local time</text><g class="tickLabel"><text x="0" transform="translate(0 -10)">0</text><text x="120" transform="translate(0 -10)">1</text><text x="240" transform="translate(0 -10)">2</text></g><text x="10" y="-5" class="startTimeLabel">start time</text><use xlink:href="#star"/></g></g><g><text x="-40" y="35" class="exampleLabel" transform="translate(70 330)">(b)</text><g transform="translate(70 330) translate(120)"><rect width="240" height="50" x="120" class="activeSpan"/><path d="M0-30h360" class="arrowLine"/><path d="M0-35v10m120-10v10m120-10v10" class="tick"/><text y="-45">Local time</text><g class="tickLabel"><text x="0" transform="translate(0 -10)">0</text><text x="120" transform="translate(0 -10)">1</text><text x="240" transform="translate(0 -10)">2</text></g><line y2="50" class="dashLine"/><text x="10" y="-5" class="startTimeLabel">start time</text><use xlink:href="#star"/><path d="M2 55s0 7 7 7h44s7 0 7 7c0 0 0-7 7-7h44s7 0 7-7" class="bracket"/><text x="60" y="90" class="regionLabel">start delay</text></g></g><g><path d="M0 0v400" class="tLine" transform="translate(370 20)"/><text x="13" y="395" class="tLineLabel" transform="translate(370 20)">t</text><text x="5" y="30" class="tLineNum" transform="translate(370 20)">2.5</text><text x="5" y="130" class="tLineNum" transform="translate(370 20)">1.5</text><text x="5" y="295" class="tLineNum" transform="translate(370 20)">1.5</text></g></svg>