<svg xmlns="http://www.w3.org/2000/svg" xmlns:xlink="http://www.w3.org/1999/xlink" width="100%" height="100%" viewBox="0 0 500 550"><defs><style type="text/css">svg{font-size:19px;font-family:sans-serif}.tick{stroke:#000;stroke-width:1;fill:none}.arrowLine,.dottedArrow{stroke:#000;stroke-width:1.5;marker-end:url(#arrow);fill:none}.dottedArrow{stroke-dasharray:4 4;stroke-width:2}.activeSpan{fill:#eee;stroke:#000}.animProgress{fill:#afeeee;stroke:#000;stroke-linejoin:bevel}.pauseSpan{fill:gold;fill-opacity:.2}.tickLabel{font-size:.8em}.tickLabel,.timeLabel{text-anchor:middle}.animationLabel{text-anchor:start;font-size:30px}.resultArrow{text-anchor:middle;font-size:40px;font-weight:700}</style><style type="text/css">.blackArrowHead{fill:#000;stroke:none}</style><marker id="arrow" markerHeight="5" markerWidth="5" orient="auto" viewBox="0 -5 10 10"><path d="M0-5l10 5l-10 5z" class="blackArrowHead"/></marker><style type="text/css"/></defs><g><text y=".3em" transform="translate(10 15)">Timeline</text><g transform="translate(10 15) translate(0 20)"><line x2="480" class="arrowLine"/><path d="M0-5v10m120-10v10m120-10v10m120-10v10" class="tick"/><g class="tickLabel"><text x="0" y="1.3em">0</text><text x="120" y="1.3em">1</text><text x="240" y="1.3em">2</text><text x="360" y="1.3em">3</text></g></g></g><g><text x="5" y="1em" transform="translate(0 65)">(a) Pause during animation</text><g transform="translate(0 65) translate(130 60)"><rect width="330" height="50" class="activeSpan"/><path d="M0 50l90-18.75h90l150-31.25v50z" class="animProgress"/><text x="15" y="35" class="animationLabel">A</text></g><g transform="translate(0 65) translate(220 60)"><rect width="90" height="50" class="pauseSpan"/><path d="M0 0v40" class="dottedArrow"/><text y="-10" class="timeLabel">pause</text><path d="M90 50v-40" class="dottedArrow"/><text x="90" y="70" class="timeLabel">unpause</text></g><text x="250" y="160" class="resultArrow" transform="translate(0 65)">⇓</text><g transform="translate(0 65) translate(220 180)"><rect width="240" height="50" class="activeSpan"/><path d="M0 50l240-50v50z" class="animProgress"/><text x="15" y="35" class="animationLabel">A′</text></g></g><g><text x="5" y="1em" transform="translate(0 320)">(b) Pause before animation</text><g transform="translate(0 320) translate(130 60)"><rect width="240" height="50" class="activeSpan"/><path d="M0 50l240-50v50z" class="animProgress"/><text x="15" y="35" class="animationLabel">B</text></g><g transform="translate(0 320) translate(40 60)"><rect width="60" height="50" fill="#fff"/><rect width="60" height="50" class="pauseSpan"/><path d="M0 0v40" class="dottedArrow"/><text y="-10" class="timeLabel">pause</text><path d="M60 50v-40" class="dottedArrow"/><text x="60" y="70" class="timeLabel">unpause</text></g><text x="250" y="155" class="resultArrow" transform="translate(0 320)">⇓</text><g transform="translate(0 320) translate(190 175)"><rect width="240" height="50" class="activeSpan"/><path d="M0 50l240-50v50z" class="animProgress"/><text x="15" y="35" class="animationLabel">B′</text></g></g></svg>