<svg xmlns="http://www.w3.org/2000/svg" xmlns:xlink="http://www.w3.org/1999/xlink" width="100%" height="100%" viewBox="-10 0 485 112"><defs><style type="text/css">svg{font-size:19px;font-family:sans-serif}.bracket{stroke:#000;stroke-width:1.5;fill:none}.activeSpan{fill:#afeeee;stroke:#000}.repeatBoundary{stroke:navy;stroke-width:2;stroke-dasharray:4 4}.inputLabel{font-size:24px;fill:navy;text-anchor:middle}.opLabel{font-size:35px;font-weight:700;fill:#000}.opLabel,.regionLabel{text-anchor:middle}</style></defs><g><g transform="translate(3 1)"><rect width="60" height="50" class="activeSpan"/><path d="M2 55s0 7 7 7h14s7 0 7 7c0 0 0-7 7-7h14s7 0 7-7" class="bracket"/><text x="30" y="90" class="regionLabel">iteration<tspan x="30" dy="1em">duration</tspan></text></g><text x="95" y="40" class="opLabel" transform="translate(3 1)">×</text><g><text y="25" class="inputLabel" transform="translate(3 1) translate(180)">iteration<tspan x="0" dy="1em">count (2.5)</tspan></text></g><text x="270" y="40" class="opLabel" transform="translate(3 1)">=</text><g transform="translate(3 1) translate(320)"><rect width="150" height="50" class="activeSpan"/><path d="M60 0v50m60-50v50" class="repeatBoundary"/><path d="M2 55s0 7 7 7h59s7 0 7 7c0 0 0-7 7-7h59s7 0 7-7" class="bracket"/><text x="75" y="90" class="regionLabel">active duration</text></g></g></svg>