<svg xmlns="http://www.w3.org/2000/svg" xmlns:xlink="http://www.w3.org/1999/xlink" width="100%" height="100%" viewBox="0 0 515 355"><defs><style type="text/css">svg{font-size:19px;font-family:sans-serif}.bracket{stroke:#000;stroke-width:1.5;fill:none}.activeSpan{fill:#afeeee;stroke:#000}.repeatBoundary{stroke:navy;stroke-width:2;stroke-dasharray:4 4}.inputLabel{font-size:24px;fill:navy;text-anchor:middle}.opLabel{font-size:35px;font-weight:700;fill:#000}.opLabel,.regionLabel{text-anchor:middle}.stepLabel{font-size:22px}</style></defs><g><text class="stepLabel" transform="translate(0 20)">① Calculate the repeated duration</text><g><g transform="translate(0 20) translate(40 30)"><rect width="60" height="50" class="activeSpan"/><path d="M2 55s0 7 7 7h14s7 0 7 7c0 0 0-7 7-7h14s7 0 7-7" class="bracket"/><text x="30" y="90" class="regionLabel">iteration<tspan x="30" dy="1em">duration</tspan></text></g><text x="95" y="40" class="opLabel" transform="translate(0 20) translate(40 30)">×</text><g><text y="25" class="inputLabel" transform="translate(0 20) translate(40 30) translate(180)">iteration<tspan x="0" dy="1em">count (2.5)</tspan></text></g><text x="270" y="40" class="opLabel" transform="translate(0 20) translate(40 30)">=</text><g transform="translate(0 20) translate(40 30) translate(320)"><rect width="150" height="50" class="activeSpan"/><path d="M60 0v50m60-50v50" class="repeatBoundary"/><path d="M2 55s0 7 7 7h59s7 0 7 7c0 0 0-7 7-7h59s7 0 7-7" class="bracket"/><text x="75" y="90" class="regionLabel">repeated duration</text></g></g></g><g><text class="stepLabel" transform="translate(0 210)">② Calculate the active duration</text><g><g transform="translate(0 210) translate(40 30)"><rect width="150" height="50" class="activeSpan"/><path d="M60 0v50m60-50v50" class="repeatBoundary"/><path d="M2 55s0 7 7 7h59s7 0 7 7c0 0 0-7 7-7h59s7 0 7-7" class="bracket"/><text x="75" y="90" class="regionLabel">repeated duration</text></g><text x="185" y="40" class="opLabel" transform="translate(0 210) translate(40 30)">÷</text><g><text y="25" class="inputLabel" transform="translate(0 210) translate(40 30) translate(260)">playback<tspan x="0" dy="1em">rate (2)</tspan></text></g><text x="340" y="40" class="opLabel" transform="translate(0 210) translate(40 30)">=</text><g transform="translate(0 210) translate(40 30) translate(380)"><rect width="75" height="50" class="activeSpan"/><path d="M30 0v50m30-50v50" class="repeatBoundary"/><path d="M2 55s0 7 7 7h21.5s7 0 7 7c0 0 0-7 7-7h21.5s7 0 7-7" class="bracket"/><text x="37.5" y="90" class="regionLabel">active<tspan x="37.5" dy="1em">duration</tspan></text></g></g></g></svg>