<svg xmlns="http://www.w3.org/2000/svg" xmlns:xlink="http://www.w3.org/1999/xlink" width="100%" height="100%" viewBox="0 0 598 440"><defs><style type="text/css">svg{font-size:19px;font-family:sans-serif}.bracket,.dashLine{stroke:#000;fill:none}.dashLine{stroke-dasharray:2 6;stroke-width:2.5;stroke-linecap:round}.bracket{stroke-width:1.5}.openArrow{stroke:#bf5a61;stroke-width:1;stroke-linecap:round;fill:none}.layer .box{stroke:#000;stroke-width:.5px}.layer.ua .box{fill:#6980c0}.layer.user .box{fill:#83ce71}.layer.author .box{fill:#f3fc8a}.layer.override .box{fill:#efb683}.layer.anim .box{fill:#bf5a61}.layer.trans .box{fill:#b362b0}.layer.anim text,.layer.trans text,.layer.ua text{fill:#fff}.layer.trans .label{font-weight:700}.expandedLayer .layer.anim text{fill:#000}.expandedLayer .layer .box{fill:#fff;fill-opacity:.5;stroke:#bf5a61;stroke-width:1px;stroke-dasharray:4 4}.label{font-size:17px}.label.small{font-size:14px}.important .label{font-weight:700}.compositeOrderLabel{font-size:12.5px}.bracketLabel{font-size:16px}</style></defs><g class="layer trans" transform="translate(0 0)"><rect width="240" height="40" class="box"/><text x="10" y="27" class="label">Transitions</text></g><g class="layer ua important" transform="translate(0 40)"><rect width="240" height="40" class="box"/><text x="10" y="27" class="label">User-agent !important</text></g><g class="layer user important" transform="translate(0 80)"><rect width="240" height="40" class="box"/><text x="10" y="27" class="label">User !important</text></g><g class="layer override important" transform="translate(0 120)"><rect width="240" height="40" class="box"/><text x="10" y="27" class="label">Override !important</text></g><g class="layer author important" transform="translate(0 160)"><rect width="240" height="40" class="box"/><text x="10" y="27" class="label">Author !important</text></g><g class="layer anim" transform="translate(0 220)"><rect width="240" height="40" class="box"/><text x="10" y="27" class="label">Animations</text></g><g class="expandedLayer"><path d="M30 42h-42m7-7l-15 15l15 15m-7-7h42" class="openArrow" transform="translate(270 190)"/><g class="layer anim" transform="translate(270 190) translate(40 35)"><rect width="220" height="35" class="box"/><text x="10" y="23" class="label small" textLength="202">Effect value <tspan class="compositeOrderLabel">(highest composite order)</tspan></text></g><path d="M135 75v45" class="dashLine" transform="translate(270 190)"/><g class="layer anim" transform="translate(270 190) translate(40 125)"><rect width="220" height="35" class="box"/><text x="10" y="23" class="label small" textLength="202">Effect value <tspan class="compositeOrderLabel">(lowest composite order)</tspan></text></g><path d="M265 35s7 0 7 7v48.5s0 7 5 7c0 0-5 0-5 7v48.5s0 7-7 7" class="bracket" transform="translate(270 190)"/><text x="285" y="95" class="bracketLabel" transform="translate(270 190)">Effect <tspan x="285" dy="1em">stack</tspan></text></g><g class="layer override" transform="translate(0 280)"><rect width="240" height="40" class="box"/><text x="10" y="27" class="label">Override</text></g><g class="layer author" transform="translate(0 320)"><rect width="240" height="40" class="box"/><text x="10" y="27" class="label">Author</text></g><g class="layer user" transform="translate(0 360)"><rect width="240" height="40" class="box"/><text x="10" y="27" class="label">User</text></g><g class="layer ua" transform="translate(0 400)"><rect width="240" height="40" class="box"/><text x="10" y="27" class="label">User-agent</text></g></svg>