<svg xmlns="http://www.w3.org/2000/svg" width="100%" height="100%" viewBox="0 0 600 195"><defs><style type="text/css">svg{font-size:19px;font-family:sans-serif}.arrowLine{stroke:#000;stroke-width:1.5;fill:none;marker-end:url(#arrow)}.animSpan,.fillSpan{fill:#afeeee;stroke:#000}.fillSpan{fill:#d3d3d3}.legendText{font-size:.7em}.iterationProgress{stroke:green;stroke-width:3;fill:none;stroke-linecap:round;stroke-linejoin:round}.iterationProgressDotted{stroke-linejoin:round;stroke-dasharray:4 4;stroke-linecap:butt}.excludedPoint{fill:none}.excludedPoint,.includedPoint,.iterationProgressDotted{stroke:green;stroke-width:2}.iterationProgressDotted{fill:none}.includedPoint{fill:green}</style><style type="text/css">.blackArrowHead{fill:#000;stroke:none}</style><marker id="arrow" markerHeight="5" markerWidth="5" orient="auto" viewBox="0 -5 10 10"><path d="M0-5l10 5l-10 5z" class="blackArrowHead"/></marker><mask id="fadeout" maskContentUnits="objectBoundingBox"><rect width="1.1" height="1.1" x="-.05" y="-.05" fill="url(#fadeoutGrad)"/></mask><linearGradient id="fadeoutGrad"><stop offset="0" stop-color="#fff" stop-opacity="1"/><stop offset=".6" stop-color="#fff" stop-opacity="1"/><stop offset=".85" stop-color="#fff" stop-opacity="0"/></linearGradient></defs><g><text x="1em" y="1.1em">Time</text><line x1="4em" x2="97%" y1=".8em" y2=".8em" class="arrowLine"/></g><g><g mask="url(#fadeout)" transform="translate(80 20)"><g transform="translate(0 30)"><rect width="500" height="100" class="fillSpan"/><rect width="300" height="100" class="animSpan"/></g><g transform="translate(0 130)"><g mask="url(#excludedEndPoints)"><path d="M0 0l150-100m0 100l150-100h200" class="iterationProgress"/><path d="M150 -100v100m150-100v100" class="iterationProgressDotted"/></g><circle cx="150" cy="-100" r="4" class="excludedPoint"/><circle cx="150" cy="0" r="3" class="includedPoint"/><circle cx="300" cy="-100" r="3" class="includedPoint"/><mask id="excludedEndPoints"><rect width="520" height="120" x="-10" y="-110" fill="#fff"/><circle cx="150" cy="-100" r="4" fill="#000" stroke="none"/></mask></g></g><g><path d="M0 0h40" class="iterationProgress" transform="translate(80 20) translate(160 160)"/><text x="50" y=".4em" class="legendText" transform="translate(80 20) translate(160 160)">Iteration progress</text></g></g></svg>