<svg xmlns="http://www.w3.org/2000/svg" width="100%" height="100%" viewBox="0 0 610 390"><defs><style type="text/css">svg{font-size:19px;font-family:sans-serif}.arrowLine,.line{stroke:#000;stroke-width:1.5;fill:none}.arrowLine{marker-end:url(#arrow)}.activeSpan,.animationA{fill:#afeeee;stroke:#000}.animationB{fill:#ffe4e1;stroke:#000}.timelineLabel{font-size:.7em}.timelineTick{font-size:.6em;text-anchor:middle}.legendText{font-size:.7em}.iterationProgress{stroke-width:3;stroke-linecap:round}.iterationProgress,.iterationProgressDotted{fill:none;stroke-linejoin:round}.animationATime,.animationBTime{stroke-width:3;fill:none;stroke-linecap:round;stroke-linejoin:round}.iterationProgressDotted{stroke-width:2;stroke-dasharray:4 4;stroke-linecap:butt}.animationAExcludedPoint,.animationBExcludedPoint,.iterationProgressExcludedPoint{fill:none;stroke-width:2}.animationAIncludedPoint,.animationBIncludedPoint,.iterationProgressIncludedPoint{stroke-width:2}.iterationProgress,.iterationProgressDotted,.iterationProgressExcludedPoint,.iterationProgressIncludedPoint{stroke:green}.iterationProgressIncludedPoint{fill:green}.animationAExcludedPoint,.animationAIncludedPoint,.animationATime{stroke:#00f}.animationAIncludedPoint{fill:#00f}.animationBExcludedPoint,.animationBIncludedPoint,.animationBTime{stroke:red}.animationBIncludedPoint{fill:red}</style><style type="text/css">.blackArrowHead{fill:#000;stroke:none}</style><marker id="arrow" markerHeight="5" markerWidth="5" orient="auto" viewBox="0 -5 10 10"><path d="M0-5l10 5l-10 5z" class="blackArrowHead"/></marker></defs><g><text transform="translate(20 20)">Repeated timed item</text><g><g><path d="M0 0h392" class="arrowLine" transform="translate(20 20) translate(40 0) translate(0 32)"/><path d="M0-2v4m160-4v4m160-4v4" class="line" transform="translate(20 20) translate(40 0) translate(0 32)"/><text y="-.6em" class="timelineLabel" transform="translate(20 20) translate(40 0) translate(0 32)">Local time</text><text y="1.1em" class="timelineTick" transform="translate(20 20) translate(40 0) translate(0 32)">0<tspan x="160">1</tspan><tspan x="320">2</tspan></text></g><g><path d="M0 0v-92" class="arrowLine" transform="translate(20 20) translate(40 0) translate(-20 155)"/><path d="M-2 0h4" class="line" transform="translate(20 20) translate(40 0) translate(-20 155)"/><text y="-.8em" class="timelineLabel" transform="translate(20 20) translate(40 0) translate(-20 155) rotate(-90)">Iteration progress</text><text y="1.1em" class="timelineTick" transform="translate(20 20) translate(40 0) translate(-20 155) rotate(-90)">0</text></g><g transform="translate(20 20) translate(40 0) translate(0 55)"><rect width="400" height="100" class="activeSpan"/></g><g transform="translate(20 20) translate(40 0) translate(0 155)"><g mask="url(#excludedEndPoints)"><path d="M0 0l160-100m0 100l160-100m0 100l80-50" class="iterationProgress"/><path d="M160-100v100m160-100v100" class="iterationProgressDotted"/></g><circle r="3" class="iterationProgressIncludedPoint"/><circle cx="160" cy="-100" r="4" class="iterationProgressExcludedPoint"/><circle cx="160" r="3" class="iterationProgressIncludedPoint"/><circle cx="320" cy="-100" r="4" class="iterationProgressExcludedPoint"/><circle cx="320" r="3" class="iterationProgressIncludedPoint"/><circle cx="400" cy="-50" r="4" class="iterationProgressExcludedPoint"/><mask id="excludedEndPoints"><rect width="420" height="170" x="-10" y="-160" fill="#fff"/><circle cx="160" cy="-100" r="4" fill="#000" stroke="none"/><circle cx="320" cy="-100" r="4" fill="#000" stroke="none"/><circle cx="400" cy="-50" r="4" fill="#000" stroke="none"/></mask></g><g><path d="M0 0h40" class="iterationProgress" transform="translate(20 20) translate(40 0) translate(420 90)"/><text x="50" class="legendText" transform="translate(20 20) translate(40 0) translate(420 90)">Iteration<tspan x="50" dy="1em">progress</tspan></text></g></g></g><g><text transform="translate(20 220)">Sequenced timed items</text><g><g><path d="M0 0h392" class="arrowLine" transform="translate(20 220) translate(40 0) translate(0 32)"/><path d="M0-2v4m160-4v4m160-4v4" class="line" transform="translate(20 220) translate(40 0) translate(0 32)"/><text y="-.6em" class="timelineLabel" transform="translate(20 220) translate(40 0) translate(0 32)">Timeline time</text><text y="1.1em" class="timelineTick" transform="translate(20 220) translate(40 0) translate(0 32)">0<tspan x="160">1</tspan><tspan x="320">2</tspan></text></g><g><path d="M0 0v-92" class="arrowLine" transform="translate(20 220) translate(40 0) translate(-20 155)"/><path d="M-2 0h4" class="line" transform="translate(20 220) translate(40 0) translate(-20 155)"/><text y="-.8em" class="timelineLabel" transform="translate(20 220) translate(40 0) translate(-20 155) rotate(-90)">Local time</text></g><g transform="translate(20 220) translate(40 0) translate(0 55)"><rect width="160" height="100" class="animationA"/><rect width="160" height="100" x="160" class="animationB"/></g><g transform="translate(20 220) translate(40 0) translate(0 155)"><path d="M0 0l160-100" class="animationATime" mask="url(#excludedEndPoints)"/><path d="M160 0l160-100" class="animationBTime" mask="url(#excludedEndPoints)"/><circle r="3" class="animationAIncludedPoint"/><circle cx="160" cy="-100" r="4" class="animationAExcludedPoint"/><circle cx="160" r="3" class="animationBIncludedPoint"/><circle cx="320" cy="-100" r="4" class="animationBExcludedPoint"/></g><g><path d="M0 0h40" class="animationATime" transform="translate(20 220) translate(40 0) translate(420 85)"/><text x="50" y=".4em" class="legendText" transform="translate(20 220) translate(40 0) translate(420 85)">Animation A</text><g><path d="M0 0h40" class="animationBTime" transform="translate(20 220) translate(40 0) translate(420 85) translate(0 35)"/><text x="50" y=".4em" class="legendText" transform="translate(20 220) translate(40 0) translate(420 85) translate(0 35)">Animation B</text></g></g></g></g></svg>