<svg xmlns="http://www.w3.org/2000/svg" xmlns:xlink="http://www.w3.org/1999/xlink" width="100%" height="100%" viewBox="0 0 420 205"><defs><style type="text/css">svg{font-size:19px;font-family:sans-serif}.dashLine,.line{stroke-width:1.5;fill:none}.line{stroke:#000}.dashLine{stroke-dasharray:3 2;stroke:red}.animSpan{stroke:#000}.seqGroupSpan{fill:#ffdead;stroke:#000}.animSpan{fill:#afeeee}.animLabel{fill:#000;text-anchor:middle;font-size:1.1em}.seqGroupParams{fill:#d2691e}.startTimeStar{stroke:red;stroke-linecap:round;stroke-width:2;fill:none}.delayLabel{text-anchor:middle;font-size:12px}</style><path id="star" d="M-3.5-3.5l7 7M3.5-3.5l-7 7M0-5v10M-5 0h10" class="startTimeStar"/></defs><g transform="translate(10 10)"><rect width="400" height="185" class="seqGroupSpan"/><text x="5" y="25" class="seqGroupParams">“animation sequence”</text><g transform="translate(0 40)"><rect width="150" height="30" class="animSpan"/><text x="75" y="1.1em" class="animLabel">A</text></g><g transform="translate(0 80)"><rect width="180" height="30" x="110" class="animSpan"/><text x="200" y="1.1em" class="animLabel">B</text></g><path d="M150,110v-30M290,150v-30" class="dashLine"/><path d="M110,115a5,5,0,0,0,5,5h10a5,5,0,0,1,5,5a5,5,0,0,1,5-5h10a5,5,0,0,0,5-5" class="line"/><text x="130" y="135" class="delayLabel">(negative) <tspan x="130" dy="1em">start delay</tspan></text><g transform="translate(0 120)"><rect width="50" height="30" x="350" class="animSpan"/><text x="375" y="1.1em" class="animLabel">C</text></g><path d="M290,155a5,5,0,0,0,5,5h20a5,5,0,0,1,5,5a5,5,0,0,1,5-5h20a5,5,0,0,0,5-5" class="line"/><text x="320" y="175" class="delayLabel">start delay</text><use x="0" y="40" xlink:href="#star"/><use x="150" y="80" xlink:href="#star"/><use x="290" y="120" xlink:href="#star"/></g></svg>