<svg xmlns="http://www.w3.org/2000/svg" xmlns:xlink="http://www.w3.org/1999/xlink" width="100%" height="100%" viewBox="35 148 425 455"><defs><style type="text/css">svg{font-size:18px;font-family:sans-serif}.arrowLine{stroke:#000;stroke-width:1.5;fill:none;marker-end:url(#arrow)}</style><style type="text/css">.blackArrowHead{fill:#000;stroke:none}</style><marker id="arrow" markerHeight="5" markerWidth="5" orient="auto" viewBox="0 -5 10 10"><path d="M0-5l10 5l-10 5z" class="blackArrowHead"/></marker><marker id="reverseArrow" markerHeight="5" markerWidth="5" orient="auto" viewBox="-10 -5 10 10"><path d="M0-5l-10 5l10 5z" class="blackArrowHead"/></marker><style type="text/css">.startTimeStar{stroke:#00f;stroke-linecap:round;stroke-width:2;fill:none}</style><path id="star" d="M-3.5-3.5l7 7M3.5-3.5l-7 7M0-5v10M-5 0h10" class="startTimeStar"/><style type="text/css">.document{fill:#90ee90;stroke:#000;stroke-width:2}</style><g id="document"><path d="M0 0h100v70c-20-8-30-8-50 0s-30 8-50 0z" class="document"/><g><text text-anchor="middle" transform="translate(50 40)">Timeline</text></g></g><style type="text/css">.animation{fill:plum;stroke:#000;stroke-width:2}</style><g id="animation"><path d="M-40-45v90l100-45z" class="animation"/><text y=".3em" font-size=".8em" text-anchor="middle">Animation</text></g><style type="text/css">.effect{fill:#afeeee;stroke:#000;stroke-width:2}</style><g id="effect"><ellipse class="effect" rx="60" ry="40"/><text y=".3em" text-anchor="middle">Effect</text></g><style type="text/css">.group{fill:#ffdead;stroke:#000;stroke-width:2}</style><g id="group"><rect width="120" height="70" x="-60" y="-35" class="group" rx="10" ry="10"/><text y="-.2em" text-anchor="middle">Group<tspan x="0" dy="1em">effect</tspan></text></g></defs><use x="150" y="150" xlink:href="#document"/><use x="100" y="300" xlink:href="#animation"/><line x1="130" x2="180" y1="288" y2="235" class="arrowLine"/><use x="100" y="430" xlink:href="#effect"/><line x1="100" x2="100" y1="390" y2="340" class="arrowLine"/><use x="310" y="300" xlink:href="#animation"/><line x1="270" x2="220" y1="300" y2="235" class="arrowLine"/><use x="305" y="430" xlink:href="#group"/><line x1="305" x2="305" y1="395" y2="340" class="arrowLine"/><use x="225" y="560" xlink:href="#effect"/><line x1="225" x2="255" y1="520" y2="475" class="arrowLine"/><use x="395" y="560" xlink:href="#effect"/><line x1="395" x2="355" y1="520" y2="475" class="arrowLine"/></svg>